# 3ds Max Wavefront OBJ Exporter v0.97b - (c)2007 guruware
# File Created: 26.10.2021 08:50:39

mtllib stool.mtl

#
# object stool
#

v  -7.2281 36.3881 0.7984
v  -1.0380 36.3881 6.9885
v  -0.4072 36.3881 6.3578
v  -6.5974 36.3881 0.1676
v  -8.6847 37.7896 2.8218
v  -9.1317 37.7896 -0.0000
v  -9.4493 37.4719 -0.0000
v  -8.9869 37.4719 2.9200
v  -7.3877 37.7896 5.3675
v  -7.6447 37.4719 5.5542
v  -8.9869 36.2010 2.9200
v  -7.6447 36.2010 5.5542
v  -9.4493 36.2010 -0.0000
v  -2.8218 37.7896 8.6847
v  -5.3675 37.7896 7.3877
v  -5.5542 37.4719 7.6447
v  -2.9200 37.4719 8.9869
v  0.0000 37.7896 -0.0000
v  -8.6847 37.7896 -2.8218
v  -8.9869 37.4719 -2.9200
v  -8.9869 36.2010 -2.9200
v  8.6847 37.7896 2.8218
v  9.1317 37.7896 -0.0000
v  7.3877 37.7896 5.3675
v  5.3675 37.7896 7.3877
v  2.8218 37.7896 8.6847
v  0.0000 37.7896 9.1317
v  7.6447 37.4719 5.5542
v  8.9869 37.4719 2.9200
v  5.5542 37.4719 7.6447
v  2.9200 37.4719 8.9869
v  0.0000 37.4719 9.4494
v  -5.5542 36.2010 7.6447
v  -2.9200 36.2010 8.9869
v  0.0000 36.2010 9.4494
v  2.9200 36.2010 8.9869
v  5.5542 36.2010 7.6447
v  7.6447 36.2010 5.5542
v  8.9869 36.2010 2.9200
v  9.4493 36.2010 -0.0000
v  9.4493 37.4719 -0.0000
v  8.9869 36.2010 -2.9200
v  8.9869 37.4719 -2.9200
v  7.6447 36.2010 -5.5542
v  7.6447 37.4719 -5.5542
v  7.3877 37.7896 -5.3675
v  8.6847 37.7896 -2.8218
v  5.5542 36.2010 -7.6447
v  5.5542 37.4719 -7.6447
v  5.3675 37.7896 -7.3877
v  -2.8218 37.7896 -8.6847
v  0.0000 37.7896 -9.1317
v  0.0000 37.4719 -9.4493
v  -2.9200 37.4719 -8.9869
v  2.8218 37.7896 -8.6847
v  2.9200 37.4719 -8.9869
v  0.0000 36.2010 -9.4493
v  -2.9200 36.2010 -8.9869
v  2.9200 36.2010 -8.9869
v  -5.3675 37.7896 -7.3877
v  -5.5542 37.4719 -7.6447
v  -5.5542 36.2010 -7.6447
v  -7.3877 37.7896 -5.3675
v  -7.6447 37.4719 -5.5542
v  -7.6447 36.2010 -5.5542
v  0.0000 36.2010 -0.0000
v  -1.0380 33.7247 6.9885
v  -0.4072 33.7247 6.3578
v  -7.2281 33.7247 0.7984
v  -6.5974 33.7247 0.1676
v  -7.5462 36.8293 -1.2070
v  -7.5462 36.8293 1.2070
v  -5.1321 36.8293 1.2070
v  -5.1321 36.8293 -1.2070
v  -13.0393 0.0957 1.2070
v  -10.6252 0.0957 1.2070
v  -13.0393 0.0957 -1.2070
v  -10.6252 0.0957 -1.2070
v  -8.3974 26.5221 1.0263
v  -1.0498 26.5221 8.3739
v  -0.3427 26.5221 7.6668
v  -7.6902 26.5221 0.3192
v  -1.0498 25.5221 8.3739
v  -0.3427 25.5221 7.6668
v  -8.3974 25.5221 1.0263
v  -7.6902 25.5221 0.3192
v  -10.7118 14.1717 0.5588
v  -0.3728 14.1717 10.8977
v  0.3343 14.1717 10.1906
v  -10.0047 14.1717 -0.1484
v  -0.3728 13.1717 10.8977
v  0.3343 13.1717 10.1906
v  -10.7118 13.1717 0.5588
v  -10.0047 13.1717 -0.1484
v  0.7984 36.3881 7.2281
v  6.9885 36.3881 1.0380
v  6.3578 36.3881 0.4072
v  0.1676 36.3881 6.5974
v  6.9885 33.7247 1.0380
v  6.3578 33.7247 0.4072
v  0.7984 33.7247 7.2281
v  0.1676 33.7247 6.5974
v  -1.2070 36.8293 7.5462
v  1.2070 36.8293 7.5462
v  1.2070 36.8293 5.1321
v  -1.2070 36.8293 5.1321
v  1.2070 0.0957 13.0393
v  1.2070 0.0957 10.6252
v  -1.2070 0.0957 13.0393
v  -1.2070 0.0957 10.6252
v  1.0263 26.5221 8.3974
v  8.3739 26.5221 1.0498
v  7.6668 26.5221 0.3427
v  0.3192 26.5221 7.6902
v  8.3739 25.5221 1.0498
v  7.6668 25.5221 0.3427
v  1.0263 25.5221 8.3974
v  0.3192 25.5221 7.6902
v  0.5588 14.1717 10.7118
v  10.8977 14.1717 0.3728
v  10.1906 14.1717 -0.3343
v  -0.1484 14.1717 10.0047
v  10.8977 13.1717 0.3728
v  10.1906 13.1717 -0.3343
v  0.5588 13.1717 10.7118
v  -0.1484 13.1717 10.0047
v  7.2281 36.3881 -0.7984
v  1.0380 36.3881 -6.9885
v  0.4072 36.3881 -6.3578
v  6.5974 36.3881 -0.1676
v  1.0380 33.7247 -6.9885
v  0.4072 33.7247 -6.3578
v  7.2281 33.7247 -0.7984
v  6.5974 33.7247 -0.1676
v  7.5462 36.8293 1.2070
v  7.5462 36.8293 -1.2070
v  5.1321 36.8293 -1.2070
v  5.1321 36.8293 1.2070
v  13.0393 0.0957 -1.2070
v  10.6252 0.0957 -1.2070
v  13.0393 0.0957 1.2070
v  10.6252 0.0957 1.2070
v  8.3974 26.5221 -1.0263
v  1.0498 26.5221 -8.3739
v  0.3427 26.5221 -7.6668
v  7.6902 26.5221 -0.3192
v  1.0498 25.5221 -8.3739
v  0.3427 25.5221 -7.6668
v  8.3974 25.5221 -1.0263
v  7.6902 25.5221 -0.3192
v  10.7118 14.1717 -0.5588
v  0.3728 14.1717 -10.8977
v  -0.3343 14.1717 -10.1906
v  10.0047 14.1717 0.1484
v  0.3728 13.1717 -10.8977
v  -0.3343 13.1717 -10.1906
v  10.7118 13.1717 -0.5588
v  10.0047 13.1717 0.1484
v  -0.7984 36.3881 -7.2281
v  -6.9885 36.3881 -1.0380
v  -6.3578 36.3881 -0.4072
v  -0.1676 36.3881 -6.5974
v  -6.9885 33.7247 -1.0380
v  -6.3578 33.7247 -0.4072
v  -0.7984 33.7247 -7.2281
v  -0.1676 33.7247 -6.5974
v  1.2070 36.8293 -7.5462
v  -1.2070 36.8293 -7.5462
v  -1.2070 36.8293 -5.1321
v  1.2070 36.8293 -5.1321
v  -1.2070 0.0957 -13.0393
v  -1.2070 0.0957 -10.6252
v  1.2070 0.0957 -13.0393
v  1.2070 0.0957 -10.6252
v  -1.0263 26.5221 -8.3974
v  -8.3739 26.5221 -1.0498
v  -7.6668 26.5221 -0.3427
v  -0.3192 26.5221 -7.6902
v  -8.3739 25.5221 -1.0498
v  -7.6668 25.5221 -0.3427
v  -1.0263 25.5221 -8.3974
v  -0.3192 25.5221 -7.6902
v  -0.5588 14.1717 -10.7118
v  -10.8977 14.1717 -0.3728
v  -10.1906 14.1717 0.3343
v  0.1484 14.1717 -10.0047
v  -10.8977 13.1717 -0.3728
v  -10.1906 13.1717 0.3343
v  -0.5588 13.1717 -10.7118
v  0.1484 13.1717 -10.0047
# 190 vertices

vn 0.0000 1.0000 -0.0000
vn -0.6725 0.7071 0.2185
vn -0.7071 0.7071 -0.0000
vn -0.5721 0.7071 0.4156
vn -0.9511 0.0000 0.3090
vn -0.8090 0.0000 0.5878
vn -1.0000 0.0000 -0.0000
vn -0.2185 0.7071 0.6725
vn -0.4156 0.7071 0.5721
vn -0.6725 0.7071 -0.2185
vn -0.9511 0.0000 -0.3090
vn 0.6725 0.7071 0.2185
vn 0.5721 0.7071 0.4156
vn 0.4156 0.7071 0.5721
vn 0.2185 0.7071 0.6725
vn 0.0000 0.7071 0.7071
vn -0.5878 0.0000 0.8090
vn -0.3090 0.0000 0.9511
vn 0.0000 0.0000 1.0000
vn 0.3090 0.0000 0.9511
vn 0.5878 0.0000 0.8090
vn 0.8090 0.0000 0.5878
vn 0.9511 0.0000 0.3090
vn 1.0000 0.0000 -0.0000
vn 0.9511 0.0000 -0.3090
vn 0.8090 0.0000 -0.5878
vn 0.5721 0.7071 -0.4156
vn 0.6725 0.7071 -0.2185
vn 0.7071 0.7071 -0.0000
vn 0.5878 0.0000 -0.8090
vn 0.4156 0.7071 -0.5721
vn -0.2185 0.7071 -0.6725
vn 0.0000 0.7071 -0.7071
vn 0.2185 0.7071 -0.6725
vn 0.0000 0.0000 -1.0000
vn -0.3090 0.0000 -0.9511
vn 0.3090 0.0000 -0.9511
vn -0.4156 0.7071 -0.5721
vn -0.5878 0.0000 -0.8090
vn -0.5721 0.7071 -0.4156
vn -0.8090 0.0000 -0.5878
vn 0.0000 -1.0000 -0.0000
vn -0.0000 -1.0000 -0.0000
vn -0.0000 -1.0000 0.0000
vn 0.0000 -1.0000 0.0000
vn 0.7071 0.0000 0.7071
vn -0.7071 0.0000 -0.7071
vn -0.7071 0.0000 0.7071
vn 0.7071 0.0000 -0.7071
vn -0.9890 0.1479 -0.0000
vn 0.9890 -0.1479 -0.0000
vn 0.0000 0.1479 0.9890
vn 0.0000 -0.1479 -0.9890
vn 0.9890 0.1479 -0.0000
vn -0.9890 -0.1479 -0.0000
vn 0.0000 0.1479 -0.9890
vn 0.0000 -0.1479 0.9890
# 57 vertex normals

vt 0.4836 0.2793 0.0000
vt 0.4836 0.3662 0.0000
vt 0.4746 0.3662 0.0000
vt 0.4746 0.2793 0.0000
vt 0.6226 0.5591 0.0000
vt 0.5845 0.5825 0.0000
vt 0.5767 0.5801 0.0000
vt 0.6162 0.5559 0.0000
vt 0.6738 0.5420 0.0000
vt 0.6689 0.5374 0.0000
vt 0.5972 0.5457 0.0000
vt 0.6519 0.5256 0.0000
vt 0.5522 0.5730 0.0000
vt 0.7939 0.5374 0.0000
vt 0.7339 0.5352 0.0000
vt 0.7334 0.5305 0.0000
vt 0.7964 0.5327 0.0000
vt 0.6704 0.5371 0.0000
vt 0.7505 0.6331 0.0000
vt 0.5615 0.6104 0.0000
vt 0.5527 0.6094 0.0000
vt 0.5254 0.6060 0.0000
vt 0.9453 0.6550 0.0000
vt 0.9194 0.6863 0.0000
vt 0.9487 0.6238 0.0000
vt 0.9336 0.5930 0.0000
vt 0.8979 0.5674 0.0000
vt 0.8506 0.5483 0.0000
vt 0.9585 0.6233 0.0000
vt 0.9556 0.6555 0.0000
vt 0.9434 0.5908 0.0000
vt 0.9048 0.5640 0.0000
vt 0.8550 0.5442 0.0000
vt 0.6655 0.5225 0.0000
vt 0.7324 0.5164 0.0000
vt 0.8027 0.5188 0.0000
vt 0.8691 0.5317 0.0000
vt 0.9248 0.5540 0.0000
vt 0.9697 0.5847 0.0000
vt 0.9873 0.6223 0.0000
vt 0.9849 0.6592 0.0000
vt 0.9536 0.6975 0.0000
vt 0.9272 0.6897 0.0000
vt 0.9028 0.7249 0.0000
vt 0.8843 0.7134 0.0000
vt 0.8408 0.7429 0.0000
vt 0.8291 0.7300 0.0000
vt 0.8252 0.7256 0.0000
vt 0.8784 0.7097 0.0000
vt 0.7744 0.7526 0.0000
vt 0.7661 0.7383 0.0000
vt 0.7646 0.7329 0.0000
vt 0.6021 0.6970 0.0000
vt 0.6479 0.7168 0.0000
vt 0.6426 0.7209 0.0000
vt 0.5952 0.7002 0.0000
vt 0.7031 0.7292 0.0000
vt 0.7007 0.7336 0.0000
vt 0.7646 0.7383 0.0000
vt 0.6279 0.7329 0.0000
vt 0.5747 0.7097 0.0000
vt 0.6924 0.7471 0.0000
vt 0.7598 0.7528 0.0000
vt 0.5688 0.6709 0.0000
vt 0.5586 0.6724 0.0000
vt 0.5356 0.6819 0.0000
vt 0.5562 0.6406 0.0000
vt 0.5469 0.6409 0.0000
vt 0.5190 0.6411 0.0000
vt 0.5303 0.6748 0.0000
vt 0.8359 0.9676 0.0000
vt 0.7769 0.9754 0.0000
vt 0.7505 0.8769 0.0000
vt 0.7168 0.9743 0.0000
vt 0.6597 0.9645 0.0000
vt 0.6094 0.9466 0.0000
vt 0.5757 0.9206 0.0000
vt 0.5581 0.8917 0.0000
vt 0.5586 0.8618 0.0000
vt 0.5757 0.8330 0.0000
vt 0.6094 0.8070 0.0000
vt 0.6602 0.7891 0.0000
vt 0.7168 0.7792 0.0000
vt 0.7773 0.7780 0.0000
vt 0.8384 0.7854 0.0000
vt 0.8901 0.8040 0.0000
vt 0.9287 0.8286 0.0000
vt 0.9517 0.8589 0.0000
vt 0.9517 0.8951 0.0000
vt 0.9292 0.9257 0.0000
vt 0.8901 0.9513 0.0000
vt 0.9453 0.5105 0.0000
vt 0.9453 0.4521 0.0000
vt 0.9844 0.4521 0.0000
vt 0.9844 0.5105 0.0000
vt 0.5615 0.4521 0.0000
vt 0.5615 0.4321 0.0000
vt 0.9453 0.4321 0.0000
vt 0.5615 0.5105 0.0000
vt 0.5225 0.5105 0.0000
vt 0.5225 0.4521 0.0000
vt 0.5615 0.3735 0.0000
vt 0.9453 0.3735 0.0000
vt 0.8076 0.9070 0.0000
vt 0.6890 0.9070 0.0000
vt 0.6890 0.8474 0.0000
vt 0.8076 0.8474 0.0000
vt 0.2656 0.9609 0.0000
vt 0.2656 0.0161 0.0000
vt 0.3862 0.0249 0.0000
vt 0.3862 0.9700 0.0000
vt 0.1438 0.9609 0.0000
vt 0.0231 0.9700 0.0000
vt 0.0231 0.0249 0.0000
vt 0.1438 0.0161 0.0000
vt 0.5083 0.9700 0.0000
vt 0.5083 0.0249 0.0000
vt 0.7832 0.1128 0.0000
vt 0.7832 0.3672 0.0000
vt 0.7344 0.3672 0.0000
vt 0.7344 0.1128 0.0000
vt 0.5171 0.7119 0.0000
vt 0.5601 0.7119 0.0000
vt 0.5601 0.7334 0.0000
vt 0.5171 0.7334 0.0000
vt 0.8315 0.3672 0.0000
vt 0.8315 0.1128 0.0000
vt 0.8804 0.1128 0.0000
vt 0.8804 0.3672 0.0000
vt 0.5713 0.5439 0.0000
vt 0.5283 0.5439 0.0000
vt 0.5283 0.5222 0.0000
vt 0.5713 0.5222 0.0000
vt 0.9292 0.1128 0.0000
vt 0.9292 0.3672 0.0000
vt 0.5742 0.0049 0.0000
vt 0.5742 0.3672 0.0000
vt 0.5249 0.3672 0.0000
vt 0.5249 0.0049 0.0000
vt 0.5200 0.7429 0.0000
vt 0.5664 0.7429 0.0000
vt 0.5664 0.7664 0.0000
vt 0.5200 0.7664 0.0000
vt 0.6230 0.3672 0.0000
vt 0.6230 0.0049 0.0000
vt 0.6724 0.0049 0.0000
vt 0.6724 0.3672 0.0000
vt 0.6392 0.7677 0.0000
vt 0.5928 0.7677 0.0000
vt 0.5928 0.7444 0.0000
vt 0.6392 0.7444 0.0000
vt 0.7217 0.0049 0.0000
vt 0.7217 0.3672 0.0000
# 153 texture coords

o stool
g stool
usemtl stool
s off
f 1/1/1 2/2/1 3/3/1 4/4/1 
f 5/5/2 6/6/3 7/7/3 8/8/2 
f 9/9/4 5/5/2 8/8/2 10/10/4 
f 8/8/5 11/11/5 12/12/6 10/10/6 
f 7/7/7 13/13/7 11/11/5 8/8/5 
f 14/14/8 15/15/9 16/16/9 17/17/8 
f 15/15/9 9/9/4 10/18/4 16/16/9 
f 9/9/1 15/15/1 18/19/1 
f 5/5/1 18/19/1 6/6/1 
f 6/6/3 19/20/10 20/21/10 7/7/3 
f 20/21/11 21/22/11 13/13/7 7/7/7 
f 22/23/1 23/24/1 18/19/1 
f 24/25/1 18/19/1 25/26/1 
f 26/27/1 25/26/1 18/19/1 
f 27/28/1 18/19/1 14/14/1 
f 22/23/12 24/25/13 28/29/13 29/30/12 
f 24/25/13 25/26/14 30/31/14 28/29/13 
f 25/26/14 26/27/15 31/32/15 30/31/14 
f 26/27/15 27/28/16 32/33/16 31/32/15 
f 27/28/16 14/14/8 17/17/8 32/33/16 
f 10/18/6 12/34/6 33/35/17 16/16/17 
f 16/16/17 33/35/17 34/36/18 17/17/18 
f 17/17/18 34/36/18 35/37/19 32/33/19 
f 32/33/19 35/37/19 36/38/20 31/32/20 
f 31/32/20 36/38/20 37/39/21 30/31/21 
f 30/31/21 37/39/21 38/40/22 28/29/22 
f 28/29/22 38/40/22 39/41/23 29/30/23 
f 29/30/23 39/41/23 40/42/24 41/43/24 
f 41/43/24 40/42/24 42/44/25 43/45/25 
f 43/45/25 42/44/25 44/46/26 45/47/26 
f 46/48/27 47/49/28 43/45/28 45/47/27 
f 47/49/28 23/24/29 41/43/29 43/45/28 
f 45/47/26 44/46/26 48/50/30 49/51/30 
f 50/52/31 46/48/27 45/47/27 49/51/31 
f 46/48/1 18/19/1 47/49/1 
f 22/23/12 29/30/12 41/43/29 23/24/29 
f 51/53/32 52/54/33 53/55/33 54/56/32 
f 52/54/33 55/57/34 56/58/34 53/55/33 
f 55/57/34 50/52/31 49/59/31 56/58/34 
f 50/52/1 55/57/1 18/19/1 
f 52/54/1 51/53/1 18/19/1 
f 53/55/35 57/60/35 58/61/36 54/56/36 
f 56/58/37 59/62/37 57/60/35 53/55/35 
f 49/59/30 48/63/30 59/62/37 56/58/37 
f 60/64/38 51/53/32 54/56/32 61/65/38 
f 54/56/36 58/61/36 62/66/39 61/65/39 
f 63/67/40 60/64/38 61/65/38 64/68/40 
f 19/20/10 63/67/40 64/68/40 20/21/10 
f 19/20/1 6/6/1 18/19/1 
f 63/67/1 18/19/1 60/64/1 
f 64/68/41 65/69/41 21/22/11 20/21/11 
f 61/65/39 62/70/39 65/69/41 64/68/41 
f 36/71/42 35/72/42 66/73/43 
f 35/72/42 34/74/42 66/73/43 
f 33/75/43 12/76/44 66/73/43 
f 12/76/44 11/77/45 66/73/43 
f 13/78/42 21/79/42 66/73/43 
f 65/80/42 62/81/43 66/73/43 
f 62/81/43 58/82/44 66/73/43 
f 57/83/42 59/84/45 66/73/43 
f 48/85/42 44/86/43 66/73/43 
f 44/86/43 42/87/42 66/73/43 
f 40/88/42 39/89/42 66/73/43 
f 38/90/42 37/91/42 66/73/43 
f 2/92/46 67/93/46 68/94/46 3/95/46 
f 67/93/42 69/96/42 70/97/42 68/98/42 
f 69/96/47 1/99/47 4/100/47 70/101/47 
f 69/96/48 67/93/48 2/92/48 1/99/48 
f 4/102/49 3/103/49 68/98/49 70/97/49 
f 71/104/1 72/105/1 73/106/1 74/107/1 
f 72/108/19 75/109/19 76/110/19 73/111/19 
f 75/106/42 77/107/42 78/104/42 76/105/42 
f 71/112/35 74/113/35 78/114/35 77/115/35 
f 77/115/50 75/109/50 72/108/50 71/112/50 
f 74/116/51 73/111/51 76/110/51 78/117/51 
f 79/118/1 80/119/1 81/120/1 82/121/1 
f 80/122/46 83/123/46 84/124/46 81/125/46 
f 83/126/42 85/127/42 86/128/42 84/129/42 
f 85/130/47 79/131/47 82/132/47 86/133/47 
f 85/127/48 83/126/48 80/119/48 79/118/48 
f 82/134/49 81/135/49 84/129/49 86/128/49 
f 87/136/1 88/137/1 89/138/1 90/139/1 
f 88/140/46 91/141/46 92/142/46 89/143/46 
f 91/144/42 93/145/42 94/146/42 92/147/42 
f 93/148/47 87/149/47 90/150/47 94/151/47 
f 93/145/48 91/144/48 88/137/48 87/136/48 
f 90/152/49 89/153/49 92/147/49 94/146/49 
f 95/1/1 96/2/1 97/3/1 98/4/1 
f 96/92/49 99/93/49 100/94/49 97/95/49 
f 99/93/42 101/96/42 102/97/42 100/98/42 
f 101/96/48 95/99/48 98/100/48 102/101/48 
f 101/96/46 99/93/46 96/92/46 95/99/46 
f 98/102/47 97/103/47 100/98/47 102/97/47 
f 103/104/1 104/105/1 105/106/1 106/107/1 
f 104/108/24 107/109/24 108/110/24 105/111/24 
f 107/106/42 109/107/42 110/104/42 108/105/42 
f 103/112/7 106/113/7 110/114/7 109/115/7 
f 109/115/52 107/109/52 104/108/52 103/112/52 
f 106/116/53 105/111/53 108/110/53 110/117/53 
f 111/118/1 112/119/1 113/120/1 114/121/1 
f 112/122/49 115/123/49 116/124/49 113/125/49 
f 115/126/42 117/127/42 118/128/42 116/129/42 
f 117/130/48 111/131/48 114/132/48 118/133/48 
f 117/127/46 115/126/46 112/119/46 111/118/46 
f 114/134/47 113/135/47 116/129/47 118/128/47 
f 119/136/1 120/137/1 121/138/1 122/139/1 
f 120/140/49 123/141/49 124/142/49 121/143/49 
f 123/144/42 125/145/42 126/146/42 124/147/42 
f 125/148/48 119/149/48 122/150/48 126/151/48 
f 125/145/46 123/144/46 120/137/46 119/136/46 
f 122/152/47 121/153/47 124/147/47 126/146/47 
f 127/1/1 128/2/1 129/3/1 130/4/1 
f 128/92/47 131/93/47 132/94/47 129/95/47 
f 131/93/42 133/96/42 134/97/42 132/98/42 
f 133/96/46 127/99/46 130/100/46 134/101/46 
f 133/96/49 131/93/49 128/92/49 127/99/49 
f 130/102/48 129/103/48 132/98/48 134/97/48 
f 135/104/1 136/105/1 137/106/1 138/107/1 
f 136/108/35 139/109/35 140/110/35 137/111/35 
f 139/106/42 141/107/42 142/104/42 140/105/42 
f 135/112/19 138/113/19 142/114/19 141/115/19 
f 141/115/54 139/109/54 136/108/54 135/112/54 
f 138/116/55 137/111/55 140/110/55 142/117/55 
f 143/118/1 144/119/1 145/120/1 146/121/1 
f 144/122/47 147/123/47 148/124/47 145/125/47 
f 147/126/42 149/127/42 150/128/42 148/129/42 
f 149/130/46 143/131/46 146/132/46 150/133/46 
f 149/127/49 147/126/49 144/119/49 143/118/49 
f 146/134/48 145/135/48 148/129/48 150/128/48 
f 151/136/1 152/137/1 153/138/1 154/139/1 
f 152/140/47 155/141/47 156/142/47 153/143/47 
f 155/144/42 157/145/42 158/146/42 156/147/42 
f 157/148/46 151/149/46 154/150/46 158/151/46 
f 157/145/49 155/144/49 152/137/49 151/136/49 
f 154/152/48 153/153/48 156/147/48 158/146/48 
f 159/1/1 160/2/1 161/3/1 162/4/1 
f 160/92/48 163/93/48 164/94/48 161/95/48 
f 163/93/42 165/96/42 166/97/42 164/98/42 
f 165/96/49 159/99/49 162/100/49 166/101/49 
f 165/96/47 163/93/47 160/92/47 159/99/47 
f 162/102/46 161/103/46 164/98/46 166/97/46 
f 167/104/1 168/105/1 169/106/1 170/107/1 
f 168/108/7 171/109/7 172/110/7 169/111/7 
f 171/106/42 173/107/42 174/104/42 172/105/42 
f 167/112/24 170/113/24 174/114/24 173/115/24 
f 173/115/56 171/109/56 168/108/56 167/112/56 
f 170/116/57 169/111/57 172/110/57 174/117/57 
f 175/118/1 176/119/1 177/120/1 178/121/1 
f 176/122/48 179/123/48 180/124/48 177/125/48 
f 179/126/42 181/127/42 182/128/42 180/129/42 
f 181/130/49 175/131/49 178/132/49 182/133/49 
f 181/127/47 179/126/47 176/119/47 175/118/47 
f 178/134/46 177/135/46 180/129/46 182/128/46 
f 183/136/1 184/137/1 185/138/1 186/139/1 
f 184/140/48 187/141/48 188/142/48 185/143/48 
f 187/144/42 189/145/42 190/146/42 188/147/42 
f 189/148/49 183/149/49 186/150/49 190/151/49 
f 189/145/47 187/144/47 184/137/47 183/136/47 
f 186/152/46 185/153/46 188/147/46 190/146/46 
f 15/15/1 14/14/1 18/19/1 
f 5/5/1 9/9/1 18/19/1 
f 23/24/1 47/49/1 18/19/1 
f 24/25/1 22/23/1 18/19/1 
f 27/28/1 26/27/1 18/19/1 
f 46/48/1 50/52/1 18/19/1 
f 55/57/1 52/54/1 18/19/1 
f 51/53/1 60/64/1 18/19/1 
f 63/67/1 19/20/1 18/19/1 
f 34/74/42 33/75/43 66/73/43 
f 11/77/45 13/78/42 66/73/43 
f 21/79/42 65/80/42 66/73/43 
f 58/82/44 57/83/42 66/73/43 
f 59/84/45 48/85/42 66/73/43 
f 42/87/42 40/88/42 66/73/43 
f 39/89/42 38/90/42 66/73/43 
f 37/91/42 36/71/42 66/73/43 
# 136 polygons - 40 triangles

